<?xml version="1.0" encoding="UTF-8"?> <svg xmlns="http://www.w3.org/2000/svg" width="32" height="50" fill="none"> <g clip-path="url(#clip0)"> <path d="M31.796 37.58c-.38-1.311-1.307-2.15-2.449-2.76-1.428-.765-2.98-1.117-4.562-1.36-1.309-.202-2.627-.295-3.999-.361.144-.228-.05-.602.361-.61.324-.003.58-.077.666-.43.102-.418-.212-.575-.498-.754.77-.523 1.32-1.146 1.226-2.15-.083-.881-.069-.87.57-1.397.818-.676 1.62-1.372 2.425-2.063.12-.105.306-.2.27-.39-.062-.346.162-.494.381-.659 1.518-1.13 2.806-2.478 3.718-4.17.721-1.334 1.077-2.745.73-4.264-.476-2.076-1.864-3.38-3.656-4.28-2.001-1.006-4.128-1.33-6.346-1.051-.175.023-.45.161-.535-.057-.101-.267.216-.271.37-.372.4-.259.47-.866.057-1.049-.468-.205-.397-.53-.4-.881-.003-.223.026-.45-.007-.667-.077-.494.146-.57.576-.552.89.037 1.784.087 2.667-.066 1-.173 1.897-.54 2.33-1.582.28-.672.216-.75-.506-.75-1.563 0-3.125-.006-4.688.008-.32.002-.443-.102-.36-.412.066-.24.272-.126.416-.133.748-.037 1.025-.43.743-1.115-.066-.16-.068-.257.015-.401.425-.732.543-1.554.651-2.38.045-.332-.04-.475-.393-.472a277.76 277.76 0 0 1-4.852 0c-.364-.003-.43.156-.394.471.074.623.163 1.242.39 1.832.155.4.5.771.16 1.255-.086.125.013.321.098.47.215.372.57.347.915.334.197-.008.299.04.303.272.004.23-.093.279-.292.274-.508-.008-1.018-.003-1.526-.003-1.145 0-2.29.013-3.435-.008-.404-.007-.561.098-.432.527.225.744.72 1.218 1.401 1.517.909.399 1.871.374 2.834.388.465.007 1.084-.234 1.357.075.286.326.055.955.09 1.449.015.223-.024.37-.27.447-.264.083-.405.309-.395.6.01.284.137.508.41.592.384.119.32.441.343.721.027.344-.282.286-.458.346-1.781.607-3.583 1.16-5.354 1.802-3.01 1.092-5.948 2.35-8.465 4.425C.732 20.478-.635 23.895.277 28.148c.723 3.372 2.365 6.206 4.87 8.518.27.25.332.405.06.688-.357.371-.633.811-.875 1.267-.667 1.254-1.133 2.61-1.155 4.014-.03 1.864.178 3.73.283 5.597.246.39.378.803.344 1.28-.014.19.069.43.306.467.26.04.386-.143.44-.382.036-.464.053-.933.309-1.345.01-.214.02-.429.027-.644a.43.43 0 0 0 .002 0c.11-.338.189-.71.005-1.014-.218-.359-.547-.649.096-.897.118-.045.077-.234.084-.36.045-.888.045-1.78.144-2.66.06-.528-.213-1.017-.097-1.526a6.536 6.536 0 0 1 1.391-2.785c.217-.256.363-.305.66-.093 1.175.842 2.432 1.548 3.772 2.063.677.26 1.108.54.845 1.35-.021.064.005.145.01.218.11 1.542.935 2.643 2.108 3.522.225.17.316.252.147.579-.475.917.035 1.687 1.057 1.687l8.014.001c1.096.002 1.579-.756 1.074-1.753-.128-.254-.092-.322.104-.46.666-.465 1.241-1.03 1.623-1.764.153-.294.34-.377.643-.36.675.032 1.34-.079 1.995-.233 2.53-.59 3.958-3.032 3.232-5.544zm-15.004-2.424c-.832 1.036-1.835 1.89-2.852 2.726-.408.337-.83.661-1.143 1.1-.136.19-.26.243-.492.147-1.427-.587-2.808-1.262-4.164-2.195 2.778-1.663 5.76-2.073 8.817-2.165.082.215-.085.287-.166.387zm1.47-9.81c-.018.17-.01.346-.208.472-.667.423-.693.611-.262 1.245-.306.15-.632.275-.917.463-.35.232-.442.032-.517-.253-.012-.05.024-.124 0-.161-.73-1.106-1.594-2.102-2.492-3.064-.2-.216-.484.035-.634.251-.254.37-.86.517-.725 1.127.026.12.183.22.291.313.764.657 1.53 1.31 2.298 1.963.111.093.232.242.352.246.735.024.553.378.377.852-.235.626-.093 1.238.318 1.77.226.294.508.524.824.733-.194.145-.455.225-.5.49-.07.394.094.663.504.68.27.011.46.044.451.384-.012.403-.323.234-.486.237-2.297.038-4.556.32-6.75 1.038-1.092.357-2.13.83-3.074 1.5-.263.187-.422.216-.682-.023-2.815-2.587-4.522-5.759-4.776-9.638-.146-2.214.685-4.121 2.168-5.73 1.633-1.774 3.67-2.932 5.813-3.922 2.822-1.304 5.777-2.22 8.739-3.168 0 .52.027 1.002-.01 1.478-.023.284-.105.559-.323.8-.702.774-.726 1.742-.075 2.556.146.18.146.254.008.438-.63.834-.638 1.433-.04 2.315.3.442.446.916.463 1.45.036 1.057-.02 2.11-.135 3.159zm2.228 1.74c.456-.655.428-.846-.242-1.265-.18-.113-.184-.263-.2-.416-.12-1.14-.187-2.286-.126-3.434.025-.492.213-.921.48-1.331.528-.81.512-1.423-.091-2.174-.18-.224-.117-.308.028-.489.564-.703.652-1.63.094-2.294-.478-.567-.525-1.184-.535-1.851-.015-1.14-.019-1.18 1.109-1.293 2.45-.244 4.74.209 6.672 1.866 1.525 1.308 1.863 3.061.97 4.889-.37.76-.813 1.436-1.54 1.986-.75.57-1.26 1.467-1.88 2.214-.201.244-.346.575-.758.525-.134-.015-.209.132-.29.231-.688.835-1.376 1.671-2.063 2.508-.024.028-.04.065-.068.088-.256.202-.004.778-.445.768-.291-.009-.576-.279-.866-.429-.064-.034-.135-.053-.249-.099zm9.766 12.295c-.23 1.213-1.114 2-2.477 2.195-.377.053-.786.23-1.125.084-.404-.176-.178-.681-.286-1.03-.342-1.084-.99-1.917-1.847-2.605-.956-.767-1.878-1.57-2.707-2.48-.192-.21-.363-.442-.614-.753 2.515.187 4.908.347 7.144 1.376.164.075.318.174.474.269 1.22.75 1.675 1.684 1.438 2.944z" fill="#fff"></path> </g> <defs> <clipPath id="clip0"> <path fill="#fff" d="M0 0h32v50H0z"></path> </clipPath> </defs> </svg> 